<svg width="587" height="668" viewBox="0 0 587 668" fill="none" xmlns="http://www.w3.org/2000/svg">
<path fill-rule="evenodd" clip-rule="evenodd" d="M177.5 -0.5C254.833 -0.5 332.167 -0.5 409.5 -0.5C409.217 0.28913 408.717 0.955796 408 1.5C407.333 196.167 407.333 390.833 408 585.5C408.5 586 409 586.5 409.5 587C468.167 587.667 526.833 587.667 585.5 587C586.044 586.283 586.711 585.783 587.5 585.5C587.5 613.167 587.5 640.833 587.5 668.5C518.833 668.5 450.167 668.5 381.5 668.5C381.783 667.711 382.283 667.044 383 666.5C383.667 471.833 383.667 277.167 383 82.5C382.5 82 382 81.5 381.5 81C322.833 80.3333 264.167 80.3333 205.5 81C205 81.5 204.5 82 204 82.5C203.333 277.167 203.333 471.833 204 666.5C204.717 667.044 205.217 667.711 205.5 668.5C136.833 668.5 68.1667 668.5 -0.5 668.5C-0.5 640.833 -0.5 613.167 -0.5 585.5C0.28913 585.783 0.955796 586.283 1.5 587C60.1667 587.667 118.833 587.667 177.5 587C178 586.5 178.5 586 179 585.5C179.667 390.833 179.667 196.167 179 1.5C178.283 0.955796 177.783 0.28913 177.5 -0.5Z" fill="white"/>
</svg>
